<svg width="25" height="25" viewBox="0 0 25 25" fill="none" xmlns="http://www.w3.org/2000/svg">
<g clip-path="url(#clip0)">
<path d="M24.8916 6.40674C24.867 6.37188 24.8403 6.33701 24.8096 6.30625C24.7829 6.27754 24.7562 6.24883 24.7255 6.22422C24.6537 6.16064 24.5778 6.10322 24.4896 6.06016L18.2081 2.87734L17.8349 2.68867H17.8328C17.7159 2.6292 17.5908 2.58408 17.4637 2.55332C17.3242 2.51846 17.1807 2.5 17.0392 2.5C16.4096 2.5 15.8189 2.83018 15.4949 3.35928L14.568 4.88711L11.8035 9.43574L10.3126 6.51953C10.1978 6.33086 10.0378 6.1832 9.84707 6.08682L3.54092 2.8958C3.54092 2.89375 3.53887 2.89375 3.53682 2.8917L3.33789 2.79326C3.07539 2.65996 2.80469 2.59228 2.53398 2.59228C1.66035 2.59228 1 3.2998 1 4.23906V18.4428C1 19.218 1.49834 20.0321 2.1874 20.3808L7.90908 23.2765C8.20029 23.4241 8.49766 23.5 8.79502 23.5C9.75478 23.5 10.45 22.7453 10.45 21.7035V17.12L22 22.975V22.9688L22.404 23.1739C22.7567 23.3523 23.1095 23.4426 23.454 23.4426C24.4363 23.4426 25.15 22.7104 25.15 21.7035V7.13887C25.15 6.86406 25.0516 6.61387 24.8916 6.40674ZM9.4 21.7035C9.4 22.1711 9.14981 22.45 8.79502 22.45C8.66992 22.45 8.53047 22.4151 8.38281 22.3413L2.66113 19.4436C2.3248 19.2733 2.05 18.8222 2.05 18.4428V4.23906C2.05 3.86377 2.24893 3.64228 2.53398 3.64228C2.63447 3.64228 2.74727 3.66895 2.86416 3.72842L3.06514 3.83096H3.06719L9.37334 7.02402C9.38359 7.03018 9.3918 7.04043 9.4 7.04863V21.7035ZM16.0076 4.53848L16.3932 3.90478C16.5306 3.6792 16.7828 3.55 17.0392 3.55C17.0986 3.55 17.1602 3.5582 17.2196 3.57461C17.2647 3.58486 17.3119 3.60127 17.3611 3.62588L24.0118 6.99326C24.0139 6.99326 24.0139 6.99531 24.0139 6.99531L24.02 6.99736C24.0241 6.99941 24.0241 7.00557 24.0282 7.00762C24.061 7.03428 24.0754 7.07939 24.0528 7.11631L17.4288 18.0183L16.7521 19.1298L12.3634 10.535L16.0076 4.53848ZM10.45 15.9429V9.09531L15.1647 18.332L10.9237 16.1849L10.45 15.9429ZM24.1 21.7035C24.1 22.1424 23.8396 22.3926 23.4561 22.3926C23.2838 22.3926 23.0869 22.3434 22.8798 22.2388L21.9303 21.7568L17.6893 19.6097L24.1 9.06045V21.7035Z" fill="#FFE6D4"/>
</g>
<defs>
<clipPath id="clip0">
<rect width="25" height="25" fill="white"/>
</clipPath>
</defs>
</svg>
