<svg width="48" height="48" viewBox="0 0 48 48" fill="none" xmlns="http://www.w3.org/2000/svg">
<path d="M7.66667 3C5.08833 3 3 5.08833 3 7.66667V40.3333C3 42.9117 5.08833 45 7.66667 45H40.3333C42.9117 45 45 42.9117 45 40.3333V7.66667C45 5.08833 42.9117 3 40.3333 3H7.66667ZM7.66667 7.66667H40.3333V40.3333H7.66667V7.66667ZM14.1517 10.7383C12.152 10.7383 10.9525 11.9403 10.9525 13.541C10.9525 15.1417 12.1522 16.3392 13.9512 16.3392C15.9508 16.3392 17.1504 15.1417 17.1504 13.541C17.1504 11.9403 15.9507 10.7383 14.1517 10.7383ZM11.112 19.3333V35.6667H17V19.3333H11.112ZM21.8581 19.3333V35.6667H27.7461V26.7389C27.7461 24.0813 29.6423 23.6992 30.2116 23.6992C30.7809 23.6992 32.3034 24.2703 32.3034 26.7389V35.6667H38V26.7389C38 21.6126 35.722 19.3333 32.873 19.3333C30.024 19.3333 28.5044 20.282 27.7461 21.612V19.3333H21.8581Z" fill="black"/>
</svg>
