<svg width="25" height="25" viewBox="0 0 25 25" fill="none" xmlns="http://www.w3.org/2000/svg">
<path fill-rule="evenodd" clip-rule="evenodd" d="M12.7625 2C6.8172 2 2 6.81843 2 12.7652C2 17.5206 5.08301 21.5576 9.36068 22.9803C9.90021 23.0784 10.0964 22.749 10.0964 22.4617C10.0964 22.2059 10.0859 21.5295 10.0824 20.6324C7.08696 21.2807 6.45635 19.1886 6.45635 19.1886C5.96587 17.9446 5.26168 17.6117 5.26168 17.6117C4.28423 16.9459 5.33525 16.9599 5.33525 16.9599C6.41431 17.037 6.98186 18.0673 6.98186 18.0673C7.9418 19.7143 9.50082 19.2377 10.1139 18.9644C10.212 18.267 10.4923 17.7939 10.7971 17.5241C8.40775 17.2543 5.8958 16.3291 5.8958 12.2046C5.8958 11.0271 6.31621 10.0669 7.00288 9.3135C6.89427 9.04366 6.52291 7.94681 7.10798 6.46449C7.10798 6.46449 8.01186 6.17714 10.0684 7.56835C10.9267 7.33006 11.8481 7.21091 12.7625 7.20741C13.6769 7.21091 14.5983 7.33006 15.4566 7.56835C17.5131 6.17714 18.4135 6.46449 18.4135 6.46449C19.0021 7.94681 18.6342 9.04366 18.5221 9.3135C19.2123 10.0669 19.6257 11.0271 19.6257 12.2046C19.6257 16.3396 17.1102 17.2473 14.7139 17.5171C15.0993 17.8465 15.4426 18.5053 15.4426 19.5075C15.4426 20.9478 15.4321 22.1077 15.4321 22.4617C15.4321 22.749 15.6248 23.0854 16.1713 22.9803C20.4455 21.5541 23.525 17.5206 23.525 12.7652C23.525 6.81843 18.7078 2 12.7625 2Z" fill="#FFE6D4"/>
</svg>
