<svg width="42" height="42" viewBox="0 0 42 42" fill="none" xmlns="http://www.w3.org/2000/svg">
<path d="M5.67909 0C2.5619 0 0 2.5619 0 5.67909V36.3335C0 39.4381 2.5619 42 5.67909 42H36.3335C39.4381 42 42 39.4381 42 36.3335V5.67909C42 2.5619 39.4381 0 36.3335 0H5.67909ZM5.67909 3.23077H36.3335C37.6965 3.23077 38.7692 4.30348 38.7692 5.67909V36.3335C38.7692 37.6965 37.6965 38.7692 36.3335 38.7692H5.67909C4.30348 38.7692 3.23077 37.6965 3.23077 36.3335V5.67909C3.23077 4.30348 4.30348 3.23077 5.67909 3.23077ZM9.69231 6.46154C7.91286 6.46154 6.46154 7.91286 6.46154 9.69231C6.46154 11.4718 7.91286 12.9231 9.69231 12.9231C11.4718 12.9231 12.9231 11.4718 12.9231 9.69231C12.9231 7.91286 11.4718 6.46154 9.69231 6.46154ZM6.46154 16.1538V35.5385H12.9231V16.1538H6.46154ZM16.1538 16.1538V35.5385H22.6154V26.881C22.6154 24.1929 22.8678 21.7825 26.0986 21.7825C29.2788 21.7825 29.0769 24.6725 29.0769 27.0577V35.5385H35.5385V25.9724C35.5385 20.4195 34.3774 16.1538 28.0799 16.1538C25.0511 16.1538 23.524 17.3654 22.6911 18.9808H22.6154V16.1538H16.1538Z" fill="black"/>
</svg>
