<svg width="50" height="50" viewBox="0 0 50 50" fill="none" xmlns="http://www.w3.org/2000/svg">
<path d="M6.76082 0C3.04988 0 0 3.04988 0 6.76082V43.2542C0 46.9501 3.04988 50 6.76082 50H43.2542C46.9501 50 50 46.9501 50 43.2542V6.76082C50 3.04988 46.9501 0 43.2542 0H6.76082ZM6.76082 3.84615H43.2542C44.8768 3.84615 46.1538 5.1232 46.1538 6.76082V43.2542C46.1538 44.8768 44.8768 46.1538 43.2542 46.1538H6.76082C5.1232 46.1538 3.84615 44.8768 3.84615 43.2542V6.76082C3.84615 5.1232 5.1232 3.84615 6.76082 3.84615ZM11.5385 7.69231C9.42007 7.69231 7.69231 9.42007 7.69231 11.5385C7.69231 13.6568 9.42007 15.3846 11.5385 15.3846C13.6568 15.3846 15.3846 13.6568 15.3846 11.5385C15.3846 9.42007 13.6568 7.69231 11.5385 7.69231ZM7.69231 19.2308V42.3077H15.3846V19.2308H7.69231ZM19.2308 19.2308V42.3077H26.9231V32.0012C26.9231 28.8011 27.2236 25.9315 31.0697 25.9315C34.8558 25.9315 34.6154 29.372 34.6154 32.2115V42.3077H42.3077V30.9195C42.3077 24.3089 40.9255 19.2308 33.4285 19.2308C29.8227 19.2308 28.0048 20.6731 27.0132 22.5962H26.9231V19.2308H19.2308Z" fill="black"/>
</svg>
