<svg width="25" height="25" viewBox="0 0 25 25" fill="none" xmlns="http://www.w3.org/2000/svg">
<path d="M5.09033 2.34375C3.58276 2.34375 2.34375 3.58276 2.34375 5.09033V19.9158C2.34375 21.4172 3.58276 22.6562 5.09033 22.6562H19.9158C21.4172 22.6562 22.6562 21.4172 22.6562 19.9158V5.09033C22.6562 3.58276 21.4172 2.34375 19.9158 2.34375H5.09033ZM5.09033 3.90625H19.9158C20.575 3.90625 21.0938 4.42505 21.0938 5.09033V19.9158C21.0938 20.575 20.575 21.0938 19.9158 21.0938H5.09033C4.42505 21.0938 3.90625 20.575 3.90625 19.9158V5.09033C3.90625 4.42505 4.42505 3.90625 5.09033 3.90625ZM7.03125 5.46875C6.17065 5.46875 5.46875 6.17065 5.46875 7.03125C5.46875 7.89185 6.17065 8.59375 7.03125 8.59375C7.89185 8.59375 8.59375 7.89185 8.59375 7.03125C8.59375 6.17065 7.89185 5.46875 7.03125 5.46875ZM5.46875 10.1562V19.5312H8.59375V10.1562H5.46875ZM10.1562 10.1562V19.5312H13.2812V15.3442C13.2812 14.0442 13.4033 12.8784 14.9658 12.8784C16.5039 12.8784 16.4062 14.2761 16.4062 15.4297V19.5312H19.5312V14.9048C19.5312 12.2192 18.9697 10.1562 15.9241 10.1562C14.4592 10.1562 13.7207 10.7422 13.3179 11.5234H13.2812V10.1562H10.1562Z" fill="black"/>
</svg>
